<svg id="e8a85bd1-79ff-40cd-b574-9e39062d2da6" data-name="Layer 1" xmlns="http://www.w3.org/2000/svg" viewBox="0 0 64 64"><defs><style>.ed852f50-90c9-4460-af8a-8afe3c055e95{fill:#75cdd2;}.b055b7b5-c208-43cc-844e-755dd51691d2{fill:#99d5c6;}</style></defs><path class="ed852f50-90c9-4460-af8a-8afe3c055e95" d="M25.34,13.71V10.49a6.66,6.66,0,0,1,13.32,0v3.22h3.83V10.49a10.49,10.49,0,0,0-21,0v3.22Z"/><path class="b055b7b5-c208-43cc-844e-755dd51691d2" d="M25.34,13.71v6.37a1.92,1.92,0,1,1-3.83,0V13.71H11.85a2.56,2.56,0,0,0-2.56,2.43l-2,39.8A7.67,7.67,0,0,0,14.93,64H32V13.71Z"/><path class="ed852f50-90c9-4460-af8a-8afe3c055e95" d="M54.71,16.14a2.56,2.56,0,0,0-2.56-2.43H42.49v6.37a1.92,1.92,0,1,1-3.83,0V13.71H32V64H49.07a7.67,7.67,0,0,0,7.66-8.06Z"/></svg>