<svg id="a0972e55-309b-4721-ab64-f0e363b1245c" data-name="Layer 1" xmlns="http://www.w3.org/2000/svg" viewBox="0 0 64 64"><path d="M32,11.86a18.06,18.06,0,1,0,18,18.06A18.08,18.08,0,0,0,32,11.86Zm8.45,14.45-9.57,9.57a1.65,1.65,0,0,1-1.17.48,1.67,1.67,0,0,1-1.18-.48l-5-5a1.66,1.66,0,0,1,2.35-2.35l3.81,3.8L38.1,24a1.66,1.66,0,1,1,2.35,2.35Z"/><path d="M59.42,26.2a5.89,5.89,0,0,0-3.05-9.4h0a5.89,5.89,0,0,1-4.37-6A5.89,5.89,0,0,0,44,5a5.89,5.89,0,0,1-7.07-2.29h0a5.88,5.88,0,0,0-9.88,0A5.89,5.89,0,0,1,20,5a5.89,5.89,0,0,0-8,5.81h0a5.89,5.89,0,0,1-4.37,6,5.89,5.89,0,0,0-3,9.4h0a5.91,5.91,0,0,1,0,7.43A5.89,5.89,0,0,0,7.63,43,5.88,5.88,0,0,1,12,48.94L6.37,58.68a.34.34,0,0,0,.29.51l5.14.05a.34.34,0,0,1,.29.17l2.61,4.42a.33.33,0,0,0,.58,0l5.28-9.14a5.87,5.87,0,0,1,6.5,2.45h0a5.88,5.88,0,0,0,9.88,0h0a5.87,5.87,0,0,1,6.5-2.45l5.28,9.14a.33.33,0,0,0,.58,0l2.61-4.42a.34.34,0,0,1,.29-.17l5.14-.05a.34.34,0,0,0,.29-.51L52,48.94A5.88,5.88,0,0,1,56.37,43a5.89,5.89,0,0,0,3.05-9.4A5.91,5.91,0,0,1,59.42,26.2ZM32,50A20.06,20.06,0,1,1,52.06,29.92,20.08,20.08,0,0,1,32,50Z"/></svg>