<svg id="f47905c4-be19-4535-912c-ac0a41d5362d" data-name="Layer 1" xmlns="http://www.w3.org/2000/svg" viewBox="0 0 64 64"><path d="M55.59,38a10.43,10.43,0,0,0-3.09-4.19,12.61,12.61,0,0,0-5.4-2.46,11.57,11.57,0,0,0,5.75-4.7,13.39,13.39,0,0,0,1.86-7q0-7.62-5.86-11.46c-3.64-2.39-8.62-3.65-14.91-3.82V0H25.38V4.28H21.7V0H13.14V4.28H7.42v7.84l5.75,1.22V50.7L7.42,51.91v7.81h6.69V64h8.56V59.72h3.68V64h8.56V59.72h.42q10.37,0,15.8-4.15t5.45-12.3A14.09,14.09,0,0,0,55.59,38ZM41.35,21.11A5.14,5.14,0,0,1,39,25.77q-2.34,1.52-7.07,1.51h-5.4V14.48h6q4.45,0,6.65,1.58A5.81,5.81,0,0,1,41.35,21.11ZM41.29,48q-2,1.56-6,1.56H26.54V36.11H36a9.61,9.61,0,0,1,4.19.78,5,5,0,0,1,2.36,2.36,9.14,9.14,0,0,1,.76,4A5.66,5.66,0,0,1,41.29,48Z"/></svg>