<svg id="f469aee4-48cf-47a1-ab24-824bf0e16c09" data-name="Layer 1" xmlns="http://www.w3.org/2000/svg" viewBox="0 0 64 64"><defs><style>.ea077717-9bfb-4d25-9505-ac6b337e749a{fill:#2bb673;}.f3c74d86-25a6-4ab3-89d2-d4531129e5a1{fill:#1c75bc;}</style></defs><path d="M45.64,36.24A14,14,0,1,1,29.12,53.39h0a15.53,15.53,0,0,1-.41-2.5c0-.3,0-.61,0-.92A14,14,0,0,1,42.2,36h0l.27,0h.27c.29,0,.57,0,.86,0l.61.05a13.73,13.73,0,0,1,1.43.23ZM53.44,50a10.71,10.71,0,1,0-10.7,10.7A10.71,10.71,0,0,0,53.44,50Z"/><path class="ea077717-9bfb-4d25-9505-ac6b337e749a" d="M42.74,39.27A10.7,10.7,0,1,1,32,50,10.71,10.71,0,0,1,42.74,39.27Zm5.69,8.86a1.66,1.66,0,0,0-2.35-2.35l-4.85,4.85-1.84-1.84A1.67,1.67,0,0,0,37,51.15l3,3a1.69,1.69,0,0,0,1.18.49,1.67,1.67,0,0,0,1.17-.49Z"/><path d="M48.43,45.78a1.66,1.66,0,0,1,0,2.35l-6,6a1.67,1.67,0,0,1-1.17.49,1.69,1.69,0,0,1-1.18-.49l-3-3a1.67,1.67,0,0,1,2.35-2.36l1.84,1.84,4.85-4.85A1.66,1.66,0,0,1,48.43,45.78Z"/><path d="M45.64,36.24h0A13.73,13.73,0,0,0,44.21,36,13.71,13.71,0,0,1,45.64,36.24Z"/><path d="M44.54,11.45l1.1,24.79A13.71,13.71,0,0,0,44.21,36L43.6,36c-.29,0-.57,0-.86,0h-.27a1.22,1.22,0,0,0-.27,0l-.94-21.08H36.42V17.8a1.71,1.71,0,1,1-3.42,0V14.88H20.33V17.8a1.71,1.71,0,1,1-3.42,0V14.88H12.06l-1.4,31.51A3.43,3.43,0,0,0,14.08,50H28.7c0,.31,0,.62,0,.92a14.49,14.49,0,0,0,.39,2.5h-15a6.85,6.85,0,0,1-6.84-7.15L8.79,11.45h8.12V9.76a9.76,9.76,0,1,1,19.51,0v1.69ZM33,11.45V9.76a6.34,6.34,0,1,0-12.67,0v1.69Z"/><path d="M44.21,36,43.6,36Z"/><path d="M42.47,36l-.27,0h0A1.22,1.22,0,0,1,42.47,36Z"/><path class="f3c74d86-25a6-4ab3-89d2-d4531129e5a1" d="M41.26,14.88,42.2,36A14,14,0,0,0,28.7,50H14.08a3.43,3.43,0,0,1-3.42-3.58l1.4-31.51h4.85V17.8a1.71,1.71,0,1,0,3.42,0V14.88H33V17.8a1.71,1.71,0,1,0,3.42,0V14.88Z"/><path d="M29.14,53.39h0a14.49,14.49,0,0,1-.39-2.5A15.53,15.53,0,0,0,29.14,53.39Z"/></svg>