<svg id="a9cf0968-17a3-4e2e-8dcf-10d366d12d28" data-name="Layer 1" xmlns="http://www.w3.org/2000/svg" viewBox="0 0 64 64"><path d="M17.28,29a16.35,16.35,0,0,1-7.63-1.64,11.32,11.32,0,0,1-4.77-4.54,13.17,13.17,0,0,1-1.63-6.61V12.88A13.3,13.3,0,0,1,4.88,6.25,11.52,11.52,0,0,1,9.6,1.67,15.9,15.9,0,0,1,17.2,0a15.94,15.94,0,0,1,7.63,1.67,11.43,11.43,0,0,1,4.71,4.55,13.5,13.5,0,0,1,1.6,6.66v3.29a13.36,13.36,0,0,1-1.6,6.61,11.33,11.33,0,0,1-4.68,4.54A16,16,0,0,1,17.28,29Zm0-8a3.94,3.94,0,0,0,3.21-1.39,5.13,5.13,0,0,0,1.16-3.4V12.88a5.31,5.31,0,0,0-1.16-3.47A4,4,0,0,0,17.2,8a3.94,3.94,0,0,0-3.27,1.41,5.35,5.35,0,0,0-1.14,3.47v3.29A5.11,5.11,0,0,0,14,19.59,4.09,4.09,0,0,0,17.28,21Zm3,37.61-6.93-3.43L43.76,6.46,50.7,9.88ZM46.89,64a16.15,16.15,0,0,1-7.64-1.67,11.75,11.75,0,0,1-4.81-4.58,13,13,0,0,1-1.67-6.58V47.91a13.19,13.19,0,0,1,1.63-6.58,11.41,11.41,0,0,1,4.77-4.58,16.11,16.11,0,0,1,7.63-1.67,16,16,0,0,1,7.6,1.65,11.39,11.39,0,0,1,4.72,4.55,13.3,13.3,0,0,1,1.63,6.63v3.26a13.5,13.5,0,0,1-1.61,6.63,11.29,11.29,0,0,1-4.68,4.55A15.87,15.87,0,0,1,46.89,64Zm0-8c1.68,0,2.81-.42,3.4-1.26a6.33,6.33,0,0,0,.88-3.61V47.91a5.31,5.31,0,0,0-1.12-3.42,3.88,3.88,0,0,0-3.25-1.41,4,4,0,0,0-3.33,1.41,5.31,5.31,0,0,0-1.12,3.42v3.26a4.93,4.93,0,0,0,1.33,3.42A4.17,4.17,0,0,0,46.89,56Z"/></svg>