<svg id="f4f25b2f-c031-4b25-9376-2f5094dcb7eb" data-name="Layer 1" xmlns="http://www.w3.org/2000/svg" viewBox="0 0 64 64"><path d="M14,14.23h0a4.36,4.36,0,0,1,4.36,4.12,19.55,19.55,0,0,1-1.12,6.43,8.16,8.16,0,0,1-3.55,2.42,8.16,8.16,0,0,1-3.52-2.42A19.5,19.5,0,0,1,9,18.24,4.31,4.31,0,0,1,10,15.42a4.86,4.86,0,0,1,3.61-1.19H14m0-2h-.32C6.69,12.23,7,18.3,7,18.3A21.51,21.51,0,0,0,8.3,25.62c.61,1.23,3.7,3.58,5.33,3.58h0c1.63,0,4.71-2.35,5.33-3.58a21.51,21.51,0,0,0,1.3-7.32h0A6.38,6.38,0,0,0,14,12.23Z"/><path d="M50.71,14.23h0a4.36,4.36,0,0,1,4.36,4.11,19.62,19.62,0,0,1-1.18,6.44A8.19,8.19,0,0,1,50.4,27.2a8.25,8.25,0,0,1-3.53-2.42,20,20,0,0,1-1.17-6.5v-.06a4.35,4.35,0,0,1,1-2.78,4.87,4.87,0,0,1,3.64-1.21h.32m0-2h-.32c-7,0-6.69,6.07-6.69,6.07a22.05,22.05,0,0,0,1.35,7.32c.62,1.23,3.7,3.58,5.34,3.58s4.72-2.35,5.33-3.58a21.76,21.76,0,0,0,1.35-7.32v0a6.36,6.36,0,0,0-6.35-6.05Z"/><path d="M32,11.9a6.51,6.51,0,0,1,7,6.25,27.22,27.22,0,0,1-1.66,9c-.67,1.19-4.1,3.65-5.36,3.65h-.19a11.61,11.61,0,0,1-5.15-3.62A27.19,27.19,0,0,1,25,18.1V18a6.62,6.62,0,0,1,1.64-4.32A7.18,7.18,0,0,1,32,11.9m0-2c-9.35,0-9,8.2-9,8.2A29.19,29.19,0,0,0,24.81,28c.83,1.66,5,4.82,7.2,4.82l0,0c2.2,0,6.37-3.16,7.19-4.82A29.05,29.05,0,0,0,41,18.11s-.32-8.2-9-8.2Z"/><path d="M37.72,36.28c2,2,4.82,3.18,7.58,4.31l2,.82a14.53,14.53,0,0,1,1.1,6.47A31.12,31.12,0,0,1,32.78,52.1H31.24a31.13,31.13,0,0,1-15.62-4.23,14.49,14.49,0,0,1,1.1-6.46l1.94-.82c2.77-1.13,5.6-2.3,7.58-4.3a14,14,0,0,0,5.2,2.65A1.81,1.81,0,0,0,32,39a2.22,2.22,0,0,0,.51-.06,14,14,0,0,0,5.25-2.67m.23-3A11.93,11.93,0,0,1,32,37,12,12,0,0,1,26,33.28c-1.77,3.32-6.18,4.57-10.34,6.4-1.69.71-3.1,9.88-1.12,9.88a33.06,33.06,0,0,0,16.69,4.53h1.54a33,33,0,0,0,16.64-4.52c2,0,.58-9.18-1.13-9.89-4.16-1.83-8.57-3.08-10.34-6.4Z"/><path d="M17.82,32.42a10,10,0,0,0,1.53,1.12c-1,.49-2.06.92-3,1.28l-.05,0,0,0c-.5.23-1,.44-1.5.65l-.74.32c-2.5,1-3.65,4.22-4.17,6.86A22.54,22.54,0,0,1,2,40a11,11,0,0,1,.7-4.06L4,35.4a18.53,18.53,0,0,0,5.43-3,10.89,10.89,0,0,0,3.67,1.78l.51.13.52-.13a10.87,10.87,0,0,0,3.7-1.79m.19-2.9a8.77,8.77,0,0,1-4.4,2.75,8.73,8.73,0,0,1-4.4-2.75C7.9,32,4.63,32.89,1.55,34.25c-1.26.52-2.3,7.31-.84,7.31a24.5,24.5,0,0,0,10.86,3.31c.34-3,1.31-6.38,3.27-7.2.75-.33,1.53-.65,2.29-1,2.49-1,4.85-2,6.22-3.44-2.27-.9-4.34-1.87-5.34-3.71Z"/><path d="M54.58,32.43a18.28,18.28,0,0,0,5.43,3l1.29.53a11.32,11.32,0,0,1,.7,4.12,22.58,22.58,0,0,1-7.85,2.68C53.67,40.28,52.56,37,50,35.9c-.8-.4-1.62-.74-2.35-1-1-.43-2-.85-3-1.31a9.45,9.45,0,0,0,1.53-1.13,10.93,10.93,0,0,0,3.66,1.78l.52.13.52-.13a11,11,0,0,0,3.67-1.78m.21-2.91a8.77,8.77,0,0,1-4.4,2.75A8.77,8.77,0,0,1,46,29.52c-1,1.84-3,2.81-5.32,3.75,1.37,1.43,3.73,2.41,6.22,3.44.76.31,1.54.63,2.26,1,2,.83,3,4.25,3.29,7.21A24.5,24.5,0,0,0,63.3,41.61c1.44,0,.4-6.84-.86-7.36-3.08-1.36-6.34-2.27-7.65-4.73Z"/></svg>