<svg id="fe165ccb-819f-44fe-a6b3-1b2f8bba4e71" data-name="Layer 1" xmlns="http://www.w3.org/2000/svg" viewBox="0 0 64 64"><defs><style>.f152b250-bb5e-4860-9b08-fa2972c793cc{fill:#1c75bc;}.a8973876-db07-4574-97ed-d5b4aa4f88a8{fill:#e6e7e8;}.a114310d-42a5-4a3a-9def-a38164831dcd{fill:#be1e2d;}</style></defs><path class="f152b250-bb5e-4860-9b08-fa2972c793cc" d="M60.56,3.41a1.81,1.81,0,0,1,.5,1.66L59,15.68,48.28,5,58.89,2.9A1.82,1.82,0,0,1,60.56,3.41Z"/><path class="a8973876-db07-4574-97ed-d5b4aa4f88a8" d="M49.6,14.36a7.17,7.17,0,1,0,0,10.14A7.19,7.19,0,0,0,49.6,14.36Zm-4.67-8.7L58.3,19a11.64,11.64,0,0,1-3,5.38l-18,18-9,9-7.85-7.86-5.31-5.3h0l-2.55-2.54,27-27A11.72,11.72,0,0,1,44.93,5.66Z"/><path d="M47.57,22.48a4.31,4.31,0,1,0-6.09,0A4.31,4.31,0,0,0,47.57,22.48Zm-3,4.12a7.17,7.17,0,1,1,5.07-2.1A7.14,7.14,0,0,1,44.53,26.6Z"/><path class="a114310d-42a5-4a3a-9def-a38164831dcd" d="M35.67,48.05l-1.09,4.38A5.89,5.89,0,0,1,33,55.19l-3.74,3.73.25-4.74Z"/><polygon class="f152b250-bb5e-4860-9b08-fa2972c793cc" points="22.95 50.18 21.04 54.05 9.91 42.92 13.78 41.01 22.95 50.18"/><path class="a114310d-42a5-4a3a-9def-a38164831dcd" d="M16,28.21,10.23,34l-.37.37-4.74.25,3.73-3.73a5.82,5.82,0,0,1,2.76-1.56Z"/><path d="M9.74,60.32l4.06-4.07a1.43,1.43,0,0,1,2,2l-4.06,4.06a1.43,1.43,0,0,1-1,.42,1.43,1.43,0,0,1-1-2.44Z"/><path d="M61.06,5.07A1.85,1.85,0,0,0,58.89,2.9L48.28,5,59,15.68ZM34.58,52.43l1.09-4.38-6.13,6.13-.25,4.74L33,55.19A5.89,5.89,0,0,0,34.58,52.43ZM44.93,5.66a11.72,11.72,0,0,0-5.38,3l-27,27,2.55,2.54h0l5.31,5.3,7.85,7.86,9.05-9,18-18a11.64,11.64,0,0,0,3-5.38ZM6.82,28.83a8.75,8.75,0,0,1,4.1-2.31l9-2.23L37.53,6.67a14.61,14.61,0,0,1,7.56-4L58.35.09a4.7,4.7,0,0,1,5.52,5.52L61.3,18.87a14.5,14.5,0,0,1-4,7.56l-17.7,17.7-2.23,9a8.75,8.75,0,0,1-2.31,4.1l-6.37,6.36a1.44,1.44,0,0,1-1,.42,1.51,1.51,0,0,1-.58-.12,1.43,1.43,0,0,1-.85-1.38l.45-8.58-1.61-1.6-2.35,4.79a1.47,1.47,0,0,1-1.05.78l-.24,0a1.44,1.44,0,0,1-1-.42l-14-14a1.43,1.43,0,0,1,.38-2.3l4.79-2.35L10,37.2l-8.42.44H1.47a1.43,1.43,0,0,1-1-2.44Zm3,5.51.37-.37L16,28.21,11.61,29.3a5.82,5.82,0,0,0-2.76,1.56L5.12,34.59Zm.05,8.58L21,54.05,23,50.18,13.78,41Z"/><path d="M3.65,54.22a1.43,1.43,0,0,1-2-2l4.07-4.06a1.43,1.43,0,0,1,2,2Z"/><path d="M9.74,52.19a1.44,1.44,0,0,1,2,2L3.64,62.35a1.42,1.42,0,0,1-1,.41,1.41,1.41,0,0,1-1-.41,1.44,1.44,0,0,1,0-2Z"/></svg>