<svg id="b23be00b-0d64-4bed-9d99-6f7aaf421af4" data-name="Layer 1" xmlns="http://www.w3.org/2000/svg" viewBox="0 0 64 64"><path d="M44.53,26.6a7.17,7.17,0,1,1,5.07-2.1h0A7.16,7.16,0,0,1,44.53,26.6Zm0-11.47a4.31,4.31,0,1,0,3,1.26A4.31,4.31,0,0,0,44.53,15.13Z"/><path d="M62.58,1.38A4.7,4.7,0,0,0,58.35.09L45.09,2.66a14.61,14.61,0,0,0-7.56,4L19.92,24.29l-9,2.23a8.75,8.75,0,0,0-4.1,2.31L.46,35.2a1.43,1.43,0,0,0,1,2.44h.08L10,37.2l1.67,1.68L6.85,41.23a1.43,1.43,0,0,0-.38,2.3l14,14a1.44,1.44,0,0,0,1,.42l.24,0a1.47,1.47,0,0,0,1.05-.78l2.35-4.79,1.61,1.6-.45,8.58a1.43,1.43,0,0,0,.85,1.38,1.51,1.51,0,0,0,.58.12,1.44,1.44,0,0,0,1-.42l6.37-6.36a8.75,8.75,0,0,0,2.31-4.1l2.23-9,17.7-17.7a14.5,14.5,0,0,0,4-7.56L63.87,5.61A4.7,4.7,0,0,0,62.58,1.38ZM21,54.05,9.91,42.92,13.78,41,23,50.18ZM8.85,30.86a5.82,5.82,0,0,1,2.76-1.56L16,28.21,10.23,34l-.37.37-4.74.25ZM34.58,52.43A5.89,5.89,0,0,1,33,55.19l-3.74,3.73.25-4.74,6.13-6.13Zm20.68-28-18,18h0l-9,9-7.85-7.86-5.31-5.3h0l-2.55-2.54,27-27a11.72,11.72,0,0,1,5.38-3L58.3,19A11.64,11.64,0,0,1,55.26,24.41Zm5.8-19.34L59,15.68,48.28,5,58.89,2.9a1.85,1.85,0,0,1,2.17,2.17Z"/><path d="M2.63,62.76a1.41,1.41,0,0,1-1-.41,1.44,1.44,0,0,1,0-2l8.12-8.13a1.44,1.44,0,0,1,2,2L3.64,62.35A1.42,1.42,0,0,1,2.63,62.76Z"/><path d="M10.75,62.76a1.43,1.43,0,0,1-1-2.44l4.06-4.07a1.43,1.43,0,0,1,2,2l-4.06,4.06A1.43,1.43,0,0,1,10.75,62.76Z"/><path d="M2.63,54.64a1.43,1.43,0,0,1-1-2.44l4.07-4.06a1.43,1.43,0,0,1,2,2L3.65,54.22A1.44,1.44,0,0,1,2.63,54.64Z"/></svg>