<svg id="b76bf456-6b89-4220-8b44-f4f7d833bad6" data-name="Layer 1" xmlns="http://www.w3.org/2000/svg" viewBox="0 0 64 64"><path d="M61.28,22.11c0-.05,0-.09,0-.14L58.62,6A1.68,1.68,0,0,0,57,4.6H7A1.68,1.68,0,0,0,5.38,6L2.72,22c0,.05,0,.09,0,.14s0,.09,0,.14V57.72A1.68,1.68,0,0,0,4.38,59.4H59.62a1.68,1.68,0,0,0,1.68-1.68V22.25C61.3,22.2,61.28,22.16,61.28,22.11Zm-3.64-1.54H39.34L38.51,8h17ZM27.92,23.93h8.16v6.64L33,28.41a1.7,1.7,0,0,0-1.9,0l-3.13,2.16ZM35.15,8,36,20.57H28L28.91,8ZM8.46,8H25.55l-.88,12.61H6.36ZM57.94,56H6.06V23.93h18.5v9.84a1.67,1.67,0,0,0,2.63,1.38L32,31.84l4.81,3.31a1.65,1.65,0,0,0,.95.3,1.76,1.76,0,0,0,.78-.19,1.68,1.68,0,0,0,.9-1.49V23.93h18.5Z"/></svg>