<svg id="e2be35ec-37fd-4ab3-ae15-c08124ef196e" data-name="Layer 1" xmlns="http://www.w3.org/2000/svg" viewBox="0 0 64 64"><defs><style>.e1c2c52a-5c8a-4b5f-9adf-cd02529a43a8{fill:#be8b4b;}.bc0efa59-0bb5-4950-a8d8-c4c13160c4c6{fill:#af7331;}.a9a55a04-ffc1-4b71-900b-56f64d39848e{fill:#cd9f61;}</style></defs><polygon class="e1c2c52a-5c8a-4b5f-9adf-cd02529a43a8" points="25.55 7.96 24.67 20.57 6.36 20.57 8.46 7.96 25.55 7.96"/><polygon class="bc0efa59-0bb5-4950-a8d8-c4c13160c4c6" points="35.15 7.96 35.97 20.57 28.04 20.57 28.91 7.96 35.15 7.96"/><polygon class="e1c2c52a-5c8a-4b5f-9adf-cd02529a43a8" points="55.54 7.96 57.64 20.57 39.34 20.57 38.51 7.96 55.54 7.96"/><path class="bc0efa59-0bb5-4950-a8d8-c4c13160c4c6" d="M36.08,23.93v6.64L33,28.41a1.7,1.7,0,0,0-1.9,0l-3.13,2.16V23.93Z"/><path class="a9a55a04-ffc1-4b71-900b-56f64d39848e" d="M57.94,23.93V56H6.06V23.93h18.5v9.84a1.67,1.67,0,0,0,2.63,1.38L32,31.84l4.81,3.31a1.65,1.65,0,0,0,.95.3,1.76,1.76,0,0,0,.78-.19,1.68,1.68,0,0,0,.9-1.49V23.93Z"/><path d="M61.3,22.25V57.72a1.68,1.68,0,0,1-1.68,1.68H4.38A1.68,1.68,0,0,1,2.7,57.72V22.25c0-.05,0-.09,0-.14s0-.09,0-.14L5.38,6A1.68,1.68,0,0,1,7,4.6H57A1.68,1.68,0,0,1,58.62,6l2.66,16c0,.05,0,.09,0,.14S61.3,22.2,61.3,22.25ZM57.94,56V23.93H39.44v9.84a1.68,1.68,0,0,1-.9,1.49,1.76,1.76,0,0,1-.78.19,1.65,1.65,0,0,1-.95-.3L32,31.84l-4.81,3.31a1.67,1.67,0,0,1-2.63-1.38V23.93H6.06V56Zm-.3-35.47L55.54,8h-17l.83,12.61Zm-21.56,10V23.93H27.92v6.64l3.13-2.16a1.7,1.7,0,0,1,1.9,0Zm-.11-10L35.15,8H28.91L28,20.57Zm-11.3,0L25.55,8H8.46L6.36,20.57Z"/></svg>