<svg id="bb329e59-3d30-49a7-ac0d-b164d3b3b631" data-name="Layer 1" xmlns="http://www.w3.org/2000/svg" viewBox="0 0 64 64"><path d="M42.74,64a14,14,0,1,1,14-14A14,14,0,0,1,42.74,64Zm0-24.73A10.7,10.7,0,1,0,53.44,50,10.71,10.71,0,0,0,42.74,39.27Z"/><path d="M28.7,50H14.08a3.43,3.43,0,0,1-3.42-3.58l1.4-31.51h4.85V17.8a1.71,1.71,0,1,0,3.42,0V14.88H33V17.8a1.71,1.71,0,1,0,3.42,0V14.88h4.84L42.2,36c.18,0,.35,0,.54,0a13.92,13.92,0,0,1,2.9.31l-1.1-24.8H36.42V9.76a9.76,9.76,0,1,0-19.51,0v1.69H8.79L7.24,46.24a6.85,6.85,0,0,0,6.84,7.15H29.14A14.24,14.24,0,0,1,28.7,50ZM20.33,9.76A6.34,6.34,0,1,1,33,9.76v1.69H20.33Z"/><path d="M41.23,54.65a1.69,1.69,0,0,1-1.18-.49l-3-3a1.67,1.67,0,0,1,2.35-2.36l1.84,1.84,4.85-4.85a1.66,1.66,0,0,1,2.35,2.35l-6,6A1.67,1.67,0,0,1,41.23,54.65Z"/></svg>