<svg id="b25d5f7d-dd5a-4cc1-a2c9-37dbecdeaff1" data-name="Layer 1" xmlns="http://www.w3.org/2000/svg" viewBox="0 0 64 64"><defs><style>.e2eff1e4-efb1-4e01-9e96-9c8419e4ddcd{fill:#231f20;}</style></defs><path class="e2eff1e4-efb1-4e01-9e96-9c8419e4ddcd" d="M32.11,64q-10.12,0-16-6.41t-5.9-19V25.46q0-12.56,5.9-19T32,0Q42,0,47.89,6.45t5.92,19V38.58q0,12.6-5.87,19T32.11,64Zm0-11.41a5.53,5.53,0,0,0,5-3q1.76-3,1.75-10.15V24.52c0-4.67-.6-8-1.79-10a5.87,5.87,0,0,0-10.26,0q-1.76,3-1.75,10.06V39.43q0,7.18,1.75,10.17A5.7,5.7,0,0,0,32.11,52.59Z"/></svg>