<svg xmlns="http://www.w3.org/2000/svg" viewBox="0 0 1000 1600"><path d="M1000,1355a65.88,65.88,0,0,1,0-131.76" style="fill:#0071bc"/><path d="M669,831.32a48.74,48.74,0,0,1-68.92,68.93" style="fill:#2e3192"/><rect x="586.6" y="819.32" width="41.6" height="41.6" style="fill:#00a99d"/><path d="M268.77,1353.55c.25-4.69.3-9.43.9-14.09l-.27,2a13.35,13.35,0,0,1,.73-3.18l-.76,1.8c.38-.88,1.12-1.21-.72.73.9-.94-2,1.21-.95.72l-1.79.76a1.56,1.56,0,0,1,.37-.1l-2,.27a1.41,1.41,0,0,1,.41,0l-2-.27a3.23,3.23,0,0,1,.75.22l-1.79-.76a6.23,6.23,0,0,1,1.12.64c.13.08.25.18.38.27.71.47-1.3-1-1.12-.87s.59.48.87.72c1.32,1.15,2.56,2.4,3.78,3.65,4.77,4.87,9.74,12.21,17.59,10.23,2.92-.74,4.52-2.75,5.59-5.38.26-.66.52-1.32.77-2,.54-1.47,1.05-3,1.52-4.47.91-2.91,1.68-5.86,2.37-8.84,1.38-5.92,2.42-11.92,3.49-17.9,1.22-6.83,2.46-13.65,4.25-20.35l-9.23,5.23a9.33,9.33,0,0,1,1.65.44l-1.79-.76a19.65,19.65,0,0,0,1.76,1s-1.33-1.12-.85-.64a4.25,4.25,0,0,0,.39.35c.3.29.58.58.86.89s.46.55.7.82c.49.57-.65-.89-.61-.8a2.24,2.24,0,0,0,.32.44c.47.63.91,1.28,1.36,1.92,2.17,3.12,4.49,6.08,7.95,7.86,4.26,2.19,9.17,2.68,13.46.26,3.89-2.19,6.31-6.54,7.38-10.74.86-3.35.9-6.89,2.22-10.12l-.75,1.79a11.37,11.37,0,0,1,.54-1.11c.29-.51,1.22-1.69-.27.2a8.18,8.18,0,0,0,2.2-5.3,7.66,7.66,0,0,0-2.2-5.31,7.55,7.55,0,0,0-5.3-2.19c-1.85.08-4.11.67-5.31,2.19a20.81,20.81,0,0,0-4.54,10.07,39,39,0,0,1-1.78,8l.75-1.79a12.49,12.49,0,0,1-.63,1.27c-.13.21-.25.41-.39.61q-.66,1,.54-.66a5.11,5.11,0,0,1-.45.48c-.57.5-.3.31.8-.59-.35.16-.66.39-1,.54l1.79-.75a7.64,7.64,0,0,1-1.07.28l2-.27a6.59,6.59,0,0,1-1.66,0l2,.27a8.48,8.48,0,0,1-2-.58l1.79.76a11.2,11.2,0,0,1-1.09-.56c-.27-.17-1.45-1-.29-.13s0,0-.24-.24-.62-.61-.91-.93c-.48-.55-.69-1.26.36.5-.22-.37-.5-.73-.74-1.09-.48-.69-1-1.38-1.46-2.06-2.85-3.92-6.42-8-11.5-8.78a8,8,0,0,0-5.78.76,7.78,7.78,0,0,0-3.45,4.48c-4.71,17.7-5.55,36.43-12.4,53.55l5.24-5.23a2.83,2.83,0,0,1-.7.21l2-.27a2.41,2.41,0,0,1-.71,0l2,.27a3,3,0,0,1-.71-.21l1.8.76c-.3-.14-.57-.31-.86-.46-.81-.41,1.19,1.08.55.43-.44-.43-.88-.84-1.3-1.29l-2.52-2.67c-1.32-1.38-2.63-2.76-4-4.11a29.35,29.35,0,0,0-6.75-5.54c-4.48-2.3-9.87-1.45-12.65,3-1.65,2.67-2,5.84-2.26,8.89-.43,4.26-.54,8.56-.76,12.84a7.56,7.56,0,0,0,7.5,7.5,7.67,7.67,0,0,0,7.5-7.5Z" style="fill:#ed1c24"/><path d="M832.58-35.28a47.38,47.38,0,0,0-4.39,4.46,106.25,106.25,0,0,0-8.07,10.58,82,82,0,0,0-8.31,17.8c-2.21,6.23-3,12.84-3.71,19.39a65.88,65.88,0,0,0,.66,16.17,61.83,61.83,0,0,0,3.68,15.55A96.52,96.52,0,0,0,818,60.88a99.36,99.36,0,0,0,7.83,10.75,52,52,0,0,0,8.82,8.84c5.17,4,10.14,8,16.11,10.75,6.38,2.94,12.92,5.77,19.89,6.91s14.24,2.21,21.42,1.26a21.79,21.79,0,0,0,11.17-2.5,21.75,21.75,0,0,0,9.33-6,21.78,21.78,0,0,0,6-9.33,21.76,21.76,0,0,0,2.5-11.17l-1-7.7a29,29,0,0,0-7.45-12.79l-5.87-4.53a28.92,28.92,0,0,0-14.63-4,47,47,0,0,1-12.48,0l7.71,1a51.65,51.65,0,0,1-12.73-3.52l6.93,2.92a53.42,53.42,0,0,1-11.44-6.66l5.87,4.53a50.68,50.68,0,0,1-9.11-9l4.53,5.87a47.73,47.73,0,0,1-5.94-10.17l2.93,6.92a47.46,47.46,0,0,1-3.16-11.7l1,7.7a52.16,52.16,0,0,1,0-13.56l-1,7.71A53.26,53.26,0,0,1,868.88,10L866,16.89a50.36,50.36,0,0,1,6.3-10.78L867.72,12a46.93,46.93,0,0,1,5.85-6.27,21.65,21.65,0,0,0,6-9.33,21.84,21.84,0,0,0,2.49-11.16,21.86,21.86,0,0,0-2.49-11.17,21.71,21.71,0,0,0-6-9.33l-5.86-4.53a28.92,28.92,0,0,0-14.63-4l-7.71,1a28.92,28.92,0,0,0-12.79,7.45Z" style="fill:#fcee21"/><path d="M159,845a13.25,13.25,0,0,1,1.19-.6l-2.32,1a13.41,13.41,0,0,1,3.3-.88l-2.57.35a19,19,0,0,1,4.77,0l-2.58-.35a21.17,21.17,0,0,1,5,1.35l-2.32-1a15,15,0,0,1,3.33,1.9l-2-1.51a9.94,9.94,0,0,1,1.47,1.43l-1.51-2a6.59,6.59,0,0,1,.78,1.3l-1-2.32a5.25,5.25,0,0,1,.33,1.22l-.34-2.58a5,5,0,0,1,0,1l.34-2.57a5.75,5.75,0,0,1-.18.8,9.69,9.69,0,1,0,18.68,5.15,14.11,14.11,0,0,0-1.35-10.87,18.67,18.67,0,0,0-6.51-6.47,23.4,23.4,0,0,0-3.49-1.69,26.14,26.14,0,0,0-3.92-1.4,28.38,28.38,0,0,0-8.3-.93,23.45,23.45,0,0,0-10.67,2.91,10,10,0,0,0-4.45,5.79,9.87,9.87,0,0,0,1,7.46A9.75,9.75,0,0,0,151.5,846a10.16,10.16,0,0,0,7.46-1Z" style="fill:#22b573"/><path d="M924,308.11a40,40,0,0,0,3.77-4.84c.43-.63.85-1.25,1.29-1.87.74-1-.92,1.09-.21.28.23-.26.45-.52.7-.77s.67-.49.69-.62c0,.12-1.43,1-.63.5l.45-.27c.13-.07.26-.13.38-.21.7-.44-1.18.39-.71.3s.79-.23,1.16-.33,1.18,0-.68.06c.19,0,.38,0,.57,0,.51,0,1,0,1.55,0s1.21.16,1.79.14c-.31,0-1.24-.2-.4,0l1.29.23a6.11,6.11,0,0,0,5.23-1.08,5.78,5.78,0,0,0,2.36-4.71c-.12-4.5,1.24-9,.72-13.47l-6,6a22.28,22.28,0,0,0,8.53-.61,10,10,0,0,0,6.48-6.25,21.69,21.69,0,0,0,.81-5.39c0-.32.22-1.87,0-.5s.06-.27.12-.59.21-.89.35-1.33c.08-.23.17-.46.24-.69.13-.43-.72,1.59-.15.38,1.34-2.84.88-6.61-2.15-8.21-2.67-1.41-6.78-.88-8.21,2.15a23.47,23.47,0,0,0-2.1,7.49c-.09.71-.14,1.43-.21,2.15a7.46,7.46,0,0,0-.1,1.05s.32-1.86.14-1c0,.15-.06.31-.09.47a3.48,3.48,0,0,0-.24.78s.77-1.65.4-1c-.14.26-.54.76.2-.19s.38-.48.19-.28c-.47.5-.5-.08.74-.55-.14.06-.28.18-.42.25-.7.38,1.49-.52.86-.35-.38.1-.75.22-1.13.31-.53.13-1.3,0,.6-.07-.24,0-.47,0-.71.06a30.82,30.82,0,0,1-4.19-.08c-3-.21-6.36,2.93-6,6,.52,4.51-.84,9-.72,13.47l7.6-5.78a28.16,28.16,0,0,0-9.85-.42,13.75,13.75,0,0,0-6.68,3.28,21.71,21.71,0,0,0-3.67,4.48c-.47.68-.93,1.38-1.42,2-.13.17-.25.34-.38.5-.4.56,1-1.21.39-.5-.35.42-.7.83-1.07,1.23-2.15,2.29-2.45,6.24,0,8.48s6.19,2.45,8.48,0Z" style="fill:#2e3192"/><polygon points="108.16 239.18 53.57 265.87 25.09 212.19 -34.76 201.69 -26.25 141.53 -68.49 97.86 -26.25 54.19 -34.76 -5.98 25.09 -16.47 53.57 -70.15 108.16 -43.46 162.75 -70.15 191.23 -16.47 251.08 -5.98 242.57 54.19 284.82 97.86 242.57 141.53 251.08 201.69 191.23 212.19 162.75 265.87 108.16 239.18" style="fill:#29abe2"/><path d="M150.41-32.16l22,41.54,46.31,8.12-6.58,46.56,32.69,33.8-32.69,33.8,6.58,46.55-46.31,8.13-22,41.54-42.25-20.65L65.92,227.88l-22-41.54-46.32-8.13,6.59-46.55-32.7-33.8,32.7-33.8L-2.44,17.5,43.88,9.38l22-41.54,42.24,20.65,42.25-20.65m24.68-76-49.9,24.4-17,8.32-17-8.32-49.9-24.4-26,49.07L6.31-42.33-12.36-39l-54.71,9.6,7.78,55,2.65,18.77L-69.82,57.94l-38.62,39.92,38.62,39.92,13.18,13.63-2.65,18.76-7.78,55,54.71,9.6L6.31,238l8.88,16.75,26,49.07,49.9-24.4,17-8.32,17,8.32,49.9,24.4,26-49.07L210,238l18.67-3.27,54.71-9.6-7.78-55L273,151.41l13.18-13.63,38.62-39.92L286.14,57.94,273,44.31l2.65-18.77,7.78-55L228.68-39,210-42.33l-8.88-16.74-26-49.07Z" style="fill:#2e3192"/><polygon points="941.56 722.7 923.19 719.48 925.8 701.01 912.84 687.61 925.8 674.2 923.19 655.73 941.56 652.51 950.3 636.03 967.06 644.23 983.82 636.03 992.56 652.51 1010.93 655.73 1008.32 674.2 1021.28 687.61 1008.32 701.01 1010.93 719.48 992.56 722.7 983.82 739.18 967.06 730.99 950.3 739.18 941.56 722.7" style="fill:#ed1e79"/><path d="M980,647.7l6.76,12.75,14.22,2.49-2,14.29,10,10.38L999,698l2,14.29-14.22,2.5L980,727.52l-13-6.34-13,6.34-6.76-12.75-14.22-2.5,2-14.29-10-10.37,10-10.38-2-14.29,14.22-2.49,6.76-12.75,13,6.33,13-6.33m7.58-23.33-15.32,7.49-5.23,2.56-5.23-2.56-15.32-7.49-8,15.07-2.72,5.13-5.73,1-16.8,2.95,2.39,16.88.81,5.76-4,4.18-11.86,12.26,11.86,12.25,4,4.18-.81,5.76-2.39,16.89,16.8,2.94,5.73,1,2.72,5.14,8,15.06,15.32-7.49,5.23-2.56,5.23,2.56,15.32,7.49,8-15.06,2.72-5.14,5.73-1,16.8-2.94-2.39-16.89-.81-5.76,4-4.18,11.86-12.25-11.86-12.26-4-4.18.81-5.76,2.39-16.88-16.8-2.95-5.73-1-2.72-5.13-8-15.07Z" style="fill:#d4145a"/></svg>