<svg width="1280" height="720" viewBox="0 0 1280 720" fill="none" xmlns="http://www.w3.org/2000/svg">
<g clip-path="url(#clip0)">
<ellipse cx="24.5" cy="565" rx="33.5" ry="33" fill="#FF9292"/>
<ellipse cx="57.5" cy="598" rx="12.5" ry="12" fill="#FFB4B4"/>
<path d="M1214.81 243.61L1370.03 243.61L1292.42 378.036L1214.81 243.61Z" fill="#FFDCDC"/>
<circle cx="667.964" cy="126.052" r="4" transform="rotate(30 667.964 126.052)" fill="#FFB4B4"/>
<circle cx="667.964" cy="126.052" r="4" transform="rotate(30 667.964 126.052)" fill="#FFB4B4"/>
<circle cx="680.32" cy="136.652" r="4" transform="rotate(30 680.32 136.652)" fill="#FFB4B4"/>
<circle cx="680.32" cy="136.652" r="4" transform="rotate(30 680.32 136.652)" fill="#FFB4B4"/>
<circle cx="692.675" cy="147.249" r="4" transform="rotate(30 692.675 147.249)" fill="#FFB4B4"/>
<circle cx="692.675" cy="147.249" r="4" transform="rotate(30 692.675 147.249)" fill="#FFB4B4"/>
<circle cx="705.034" cy="157.847" r="4" transform="rotate(30 705.034 157.847)" fill="#FFB4B4"/>
<circle cx="705.034" cy="157.847" r="4" transform="rotate(30 705.034 157.847)" fill="#FFB4B4"/>
<circle cx="668.894" cy="140.445" r="4" transform="rotate(30 668.894 140.445)" fill="#FFB4B4"/>
<circle cx="668.894" cy="140.445" r="4" transform="rotate(30 668.894 140.445)" fill="#FFB4B4"/>
<circle cx="681.249" cy="151.042" r="4" transform="rotate(30 681.249 151.042)" fill="#FFB4B4"/>
<circle cx="681.249" cy="151.042" r="4" transform="rotate(30 681.249 151.042)" fill="#FFB4B4"/>
<circle cx="693.605" cy="161.642" r="4" transform="rotate(30 693.605 161.642)" fill="#FFB4B4"/>
<circle cx="693.605" cy="161.642" r="4" transform="rotate(30 693.605 161.642)" fill="#FFB4B4"/>
<circle cx="705.96" cy="172.239" r="4" transform="rotate(30 705.96 172.239)" fill="#FFB4B4"/>
<circle cx="705.96" cy="172.239" r="4" transform="rotate(30 705.96 172.239)" fill="#FFB4B4"/>
<circle cx="692.554" cy="119.464" r="4" transform="rotate(30 692.554 119.464)" fill="#FFB4B4"/>
<circle cx="692.554" cy="119.464" r="4" transform="rotate(30 692.554 119.464)" fill="#FFB4B4"/>
<circle cx="704.909" cy="130.062" r="4" transform="rotate(30 704.909 130.062)" fill="#FFB4B4"/>
<circle cx="704.909" cy="130.062" r="4" transform="rotate(30 704.909 130.062)" fill="#FFB4B4"/>
<circle cx="717.265" cy="140.659" r="4" transform="rotate(30 717.265 140.659)" fill="#FFB4B4"/>
<circle cx="717.265" cy="140.659" r="4" transform="rotate(30 717.265 140.659)" fill="#FFB4B4"/>
<circle cx="729.62" cy="151.259" r="4" transform="rotate(30 729.62 151.259)" fill="#FFB4B4"/>
<circle cx="729.62" cy="151.259" r="4" transform="rotate(30 729.62 151.259)" fill="#FFB4B4"/>
<circle cx="693.48" cy="133.857" r="4" transform="rotate(30 693.48 133.857)" fill="#FFB4B4"/>
<circle cx="693.48" cy="133.857" r="4" transform="rotate(30 693.48 133.857)" fill="#FFB4B4"/>
<circle cx="705.839" cy="144.454" r="4" transform="rotate(30 705.839 144.454)" fill="#FFB4B4"/>
<circle cx="705.839" cy="144.454" r="4" transform="rotate(30 705.839 144.454)" fill="#FFB4B4"/>
<circle cx="718.195" cy="155.052" r="4" transform="rotate(30 718.195 155.052)" fill="#FFB4B4"/>
<circle cx="718.195" cy="155.052" r="4" transform="rotate(30 718.195 155.052)" fill="#FFB4B4"/>
<circle cx="730.55" cy="165.652" r="4" transform="rotate(30 730.55 165.652)" fill="#FFB4B4"/>
<circle cx="730.55" cy="165.652" r="4" transform="rotate(30 730.55 165.652)" fill="#FFB4B4"/>
</g>
<defs>
<clipPath id="clip0">
<rect width="1280" height="720" fill="white"/>
</clipPath>
</defs>
</svg>
